<?xml version="1.0" standalone="no"?>
<!DOCTYPE svg PUBLIC "-//W3C//DTD SVG 20010904//EN"
 "http://www.w3.org/TR/2001/REC-SVG-20010904/DTD/svg10.dtd">
<svg version="1.0" xmlns="http://www.w3.org/2000/svg"
 width="864.000000pt" height="690.000000pt" viewBox="0 0 864.000000 690.000000"
 preserveAspectRatio="xMidYMid meet">

<g transform="translate(0.000000,690.000000) scale(0.100000,-0.100000)"
fill="#000000" stroke="none">
<path d="M5260 5925 c0 -18 -21 -20 -37 -4 -17 17 -35 0 -29 -26 6 -25 -14
-40 -47 -36 -21 3 -34 -26 -18 -42 17 -17 13 -27 -9 -27 -16 0 -20 -7 -20 -34
0 -25 5 -35 20 -39 19 -5 20 -14 20 -221 0 -209 -1 -216 -20 -216 -17 0 -20
-7 -20 -40 0 -33 3 -40 20 -40 23 0 24 -3 8 -30 -16 -26 3 -50 25 -32 19 16
48 -16 41 -45 -7 -24 13 -40 29 -24 16 16 37 14 37 -4 0 -10 11 -15 35 -15 24
0 35 5 35 15 0 13 63 15 505 15 442 0 505 -2 505 -15 0 -10 11 -15 35 -15 26
0 35 4 35 16 0 13 7 15 38 10 112 -21 236 -116 288 -222 29 -60 44 -144 25
-144 -6 0 -11 -16 -11 -35 0 -24 5 -35 15 -35 13 0 15 -139 15 -1195 0 -1056
-2 -1195 -15 -1195 -10 0 -15 -11 -15 -35 0 -19 5 -35 11 -35 19 0 4 -84 -25
-144 -52 -106 -176 -201 -288 -220 -30 -6 -38 -4 -38 9 0 11 -10 15 -35 15
-24 0 -35 -5 -35 -15 0 -13 -63 -15 -505 -15 -442 0 -505 2 -505 15 0 10 -11
15 -35 15 -24 0 -35 -5 -35 -15 0 -18 -21 -20 -37 -4 -16 16 -36 0 -29 -24 7
-29 -22 -61 -41 -45 -22 18 -41 -6 -25 -32 16 -27 15 -30 -8 -30 -17 0 -20 -7
-20 -40 0 -33 3 -40 20 -40 19 0 20 -7 20 -216 0 -207 -1 -216 -20 -221 -15
-4 -20 -14 -20 -39 0 -27 4 -34 20 -34 21 0 27 -15 10 -25 -5 -3 -10 -15 -10
-26 0 -16 6 -20 24 -17 33 4 54 -17 48 -47 -3 -20 0 -25 17 -25 11 0 21 5 21
10 0 6 7 10 15 10 8 0 15 -7 15 -15 0 -10 11 -15 35 -15 24 0 35 5 35 15 0 13
62 15 500 15 436 0 501 -2 506 -15 8 -21 74 -21 74 0 0 13 41 15 309 15 196 0
312 -4 316 -10 12 -20 37 -11 33 12 -2 15 -9 21 -18 18 -8 -3 -121 -6 -250 -7
-224 -2 -232 -1 -170 12 234 51 440 164 610 334 180 180 289 384 344 641 14
63 14 56 15 -175 1 -167 -2 -244 -10 -252 -14 -14 -4 -43 15 -43 17 0 29 27
16 35 -6 4 -10 131 -10 321 0 272 2 314 15 314 10 0 15 11 15 35 0 28 -4 35
-20 35 -20 0 -20 7 -20 1195 0 1188 0 1195 20 1195 16 0 20 7 20 35 0 24 -5
35 -15 35 -13 0 -15 42 -15 314 0 190 4 317 10 321 13 8 1 35 -16 35 -19 0
-29 -29 -15 -43 8 -8 11 -85 10 -252 -1 -231 -1 -238 -15 -175 -55 257 -161
454 -342 639 -169 172 -373 282 -617 335 -69 14 -66 15 170 13 132 -1 247 -4
255 -7 9 -3 16 3 18 18 4 23 -21 32 -33 12 -4 -6 -120 -10 -316 -10 -268 0
-309 2 -309 15 0 10 -11 15 -35 15 -24 0 -35 -5 -35 -15 0 -13 -63 -15 -505
-15 -442 0 -505 2 -505 15 0 10 -11 15 -35 15 -24 0 -35 -5 -35 -15z"/>
<path d="M3403 5914 c-6 -15 14 -37 27 -29 4 2 31 -20 60 -50 30 -30 52 -55
50 -55 -3 0 -27 7 -54 15 -68 21 -125 19 -191 -6 -79 -30 -133 -75 -171 -144
l-34 -60 0 78 c0 44 5 86 13 98 9 17 9 23 0 26 -26 9 -28 -1 -24 -127 3 -114
1 -130 -13 -130 -12 0 -16 -10 -16 -35 0 -24 5 -35 15 -35 13 0 15 -71 15
-580 0 -509 -2 -580 -15 -580 -8 0 -15 -7 -15 -15 0 -13 -99 -15 -835 -15
-736 0 -835 2 -835 15 0 10 -11 15 -35 15 -24 0 -35 -5 -35 -15 0 -11 -13 -15
-54 -15 -30 0 -58 5 -61 10 -9 15 -35 12 -42 -6 -8 -22 13 -42 29 -26 7 7 25
12 42 12 28 0 26 -2 -21 -26 -60 -29 -117 -88 -144 -148 l-19 -41 0 33 c0 17
5 32 10 32 16 0 11 30 -6 37 -22 8 -42 -13 -26 -29 7 -7 12 -38 12 -70 0 -45
-3 -58 -15 -58 -10 0 -15 -11 -15 -35 0 -28 4 -35 20 -35 20 0 20 -7 20 -580
0 -573 0 -580 -20 -580 -16 0 -20 -7 -20 -35 0 -24 5 -35 15 -35 11 0 15 -12
15 -51 0 -28 -4 -59 -10 -69 -13 -24 14 -50 33 -31 9 9 9 16 -1 31 -6 11 -12
32 -12 47 0 24 3 21 24 -22 29 -61 96 -127 156 -154 40 -18 42 -20 17 -20 -15
-1 -36 5 -47 11 -15 9 -22 10 -31 1 -22 -22 1 -30 76 -25 65 4 75 2 75 -12 0
-12 9 -16 35 -16 24 0 35 5 35 15 0 13 99 15 835 15 736 0 835 -2 835 -15 0
-8 7 -15 15 -15 13 0 15 -71 15 -580 0 -509 -2 -580 -15 -580 -10 0 -15 -11
-15 -35 0 -26 4 -35 16 -35 14 0 16 -15 12 -130 -3 -103 -1 -130 9 -130 19 0
28 29 14 43 -6 6 -11 43 -11 87 l0 75 26 -45 c61 -107 145 -161 264 -168 52
-3 89 1 119 11 l44 16 -49 -51 c-27 -27 -59 -54 -71 -59 -13 -5 -23 -15 -23
-23 0 -20 27 -27 40 -10 7 8 9 14 4 14 -5 0 25 34 66 75 62 63 80 75 107 75
31 0 33 2 33 33 0 29 87 119 1048 1080 960 960 1050 1047 1080 1047 30 0 32 2
32 34 0 40 39 93 73 98 14 2 22 10 22 22 0 29 -24 31 -34 4 -5 -13 -16 -30
-25 -37 -15 -12 -15 -10 -1 29 19 53 19 152 0 205 -19 51 -19 51 5 30 11 -10
20 -26 20 -37 0 -11 7 -18 20 -18 13 0 20 7 20 20 0 13 -7 20 -18 20 -10 0
-32 15 -50 33 -24 25 -32 42 -32 70 0 36 -1 37 -38 37 -36 0 -67 30 -1080
1043 -955 955 -1042 1045 -1042 1075 0 30 -2 32 -33 32 -27 0 -44 12 -105 73
-39 39 -72 75 -72 80 0 4 0 12 0 17 0 16 -30 11 -37 -6z"/>
</g>
</svg>
