<?xml version="1.0" standalone="no"?>
<!DOCTYPE svg PUBLIC "-//W3C//DTD SVG 20010904//EN"
 "http://www.w3.org/TR/2001/REC-SVG-20010904/DTD/svg10.dtd">
<svg version="1.0" xmlns="http://www.w3.org/2000/svg"
 width="864.000000pt" height="690.000000pt" viewBox="0 0 864.000000 690.000000"
 preserveAspectRatio="xMidYMid meet">

<g transform="translate(0.000000,690.000000) scale(0.100000,-0.100000)"
fill="#000000" stroke="none">
<path d="M2026 6335 c-4 -12 -29 -15 -139 -15 -86 0 -137 4 -144 11 -14 14
-43 4 -43 -15 0 -17 27 -29 35 -16 4 6 48 10 98 10 l92 0 -68 -24 c-181 -64
-329 -219 -388 -405 l-17 -56 -1 93 c-1 58 4 100 12 112 10 17 9 22 -3 30 -22
13 -42 -7 -30 -30 6 -10 10 -80 10 -154 0 -114 -2 -136 -15 -136 -25 0 -20
-66 5 -73 20 -5 20 -14 20 -2222 0 -2208 0 -2217 -20 -2222 -25 -7 -30 -73 -5
-73 13 0 15 -22 15 -136 0 -74 -4 -144 -10 -154 -12 -23 8 -43 30 -30 12 8 13
13 3 30 -8 12 -13 55 -12 112 l0 93 18 -55 c59 -187 208 -342 386 -405 l70
-25 -92 0 c-50 0 -94 4 -98 10 -8 13 -35 1 -35 -16 0 -19 29 -29 43 -15 7 7
58 11 144 11 110 0 135 -3 139 -15 4 -9 19 -15 40 -15 24 0 34 5 34 15 0 13
253 15 2220 15 1967 0 2220 -2 2220 -15 0 -21 66 -21 74 0 4 12 29 15 139 15
86 0 137 -4 144 -11 14 -14 43 -4 43 15 0 17 -27 29 -35 16 -4 -6 -48 -10 -98
-9 l-92 0 56 18 c181 58 339 220 400 411 l18 55 0 -93 c1 -57 -4 -100 -11
-112 -11 -17 -10 -22 2 -30 22 -13 42 7 30 30 -6 10 -10 80 -10 154 0 114 2
136 15 136 25 0 20 66 -5 73 -20 5 -20 14 -20 2222 0 2208 0 2217 20 2222 25
7 30 73 5 73 -13 0 -15 22 -15 136 0 74 4 144 10 154 12 23 -8 43 -30 30 -12
-8 -13 -13 -2 -30 7 -12 12 -55 11 -112 l0 -93 -18 57 c-59 183 -210 341 -386
403 l-70 25 92 0 c50 0 94 -4 98 -10 8 -13 35 -1 35 16 0 19 -29 29 -43 15 -7
-7 -58 -11 -144 -11 -110 0 -135 3 -139 15 -4 9 -19 15 -40 15 -24 0 -34 -5
-34 -15 0 -13 -253 -15 -2220 -15 -1967 0 -2220 2 -2220 15 0 10 -10 15 -34
15 -21 0 -36 -6 -40 -15z m4514 -650 c0 -8 7 -15 15 -15 13 0 15 -254 15
-2225 0 -1971 -2 -2225 -15 -2225 -8 0 -15 -7 -15 -15 0 -13 -253 -15 -2220
-15 -1967 0 -2220 2 -2220 15 0 8 -7 15 -15 15 -13 0 -15 254 -15 2225 0 1971
2 2225 15 2225 8 0 15 7 15 15 0 13 253 15 2220 15 1967 0 2220 -2 2220 -15z"/>
<path d="M5650 4855 c-7 -19 -17 -25 -40 -25 -26 0 -30 -3 -30 -27 1 -24 -130
-158 -872 -895 -836 -831 -875 -867 -910 -868 -35 0 -51 15 -382 352 -312 318
-346 356 -346 385 0 31 -2 33 -35 33 -29 0 -37 5 -45 25 -10 26 -40 25 -40 -1
0 -21 -43 -17 -58 6 -14 23 -42 16 -42 -11 0 -15 -7 -19 -35 -19 -33 0 -35 -2
-35 -33 0 -28 -15 -47 -113 -145 -97 -96 -117 -112 -145 -112 -29 0 -32 -3
-32 -30 0 -23 -6 -33 -25 -40 -28 -11 -33 -37 -10 -46 8 -4 15 -16 15 -29 0
-13 -7 -25 -15 -29 -23 -8 -18 -31 10 -44 19 -9 25 -19 25 -42 0 -27 3 -30 33
-30 30 0 78 -46 580 -554 485 -491 547 -558 547 -585 0 -28 3 -31 30 -31 23 0
33 -6 40 -25 11 -29 40 -33 47 -6 5 21 42 18 56 -6 13 -21 37 -15 47 12 7 19
17 25 40 25 27 0 30 3 30 33 0 29 89 120 1071 1092 957 947 1074 1060 1105
1063 29 3 34 7 34 30 0 28 12 54 24 53 20 -3 26 1 26 14 0 9 -7 18 -15 21 -8
4 -15 16 -15 29 0 13 7 25 15 29 23 9 18 35 -10 46 -19 7 -25 17 -25 40 0 27
-3 30 -32 30 -29 0 -47 14 -140 113 -91 95 -107 117 -108 145 0 30 -2 32 -35
32 -29 0 -37 5 -45 25 -11 29 -40 34 -40 7 0 -14 -8 -19 -30 -19 -22 0 -30 5
-30 19 0 27 -29 22 -40 -7z"/>
</g>
</svg>
